<?xml version="1.0" encoding="UTF-8"?>
<!DOCTYPE svg PUBLIC "-//W3C//DTD SVG 1.1//EN" "http://www.w3.org/Graphics/SVG/1.1/DTD/svg11.dtd">
<!-- Creator: CorelDRAW 2021 (64-Bit) -->
<svg xmlns="http://www.w3.org/2000/svg" xml:space="preserve" width="8.82361in" height="8.82361in" version="1.1" style="shape-rendering:geometricPrecision; text-rendering:geometricPrecision; image-rendering:optimizeQuality; fill-rule:evenodd; clip-rule:evenodd"
viewBox="0 0 8823.61 8823.61"
 xmlns:xlink="http://www.w3.org/1999/xlink"
 xmlns:xodm="http://www.corel.com/coreldraw/odm/2003">
 <defs>
  <style type="text/css">
   <![CDATA[
    .fil0 {fill:#0344DC;fill-rule:nonzero}
    .fil2 {fill:#433930;fill-rule:nonzero}
    .fil3 {fill:#4372E0;fill-rule:nonzero}
    .fil4 {fill:#E0DBC0;fill-rule:nonzero}
    .fil1 {fill:#E3EBFA;fill-rule:nonzero}
   ]]>
  </style>
 </defs>
 <g id="Layer_x0020_1">
  <metadata id="CorelCorpID_0Corel-Layer"/>
  <path class="fil0" d="M8823.61 4411.8c0,2436.57 -1975.24,4411.81 -4411.8,4411.81 -2436.57,0 -4411.81,-1975.24 -4411.81,-4411.81 0,-2436.57 1975.24,-4411.8 4411.81,-4411.8 2436.57,0 4411.8,1975.24 4411.8,4411.8z"/>
  <path class="fil1" d="M602.05 5017.77c-191.15,-177.25 -206.54,-474.1 -35.68,-670.98 581.5,-670.15 1999.29,-2056.54 3823.1,-2121.85 1843.65,-66.03 3420.37,1420.02 4059.25,2121.63 178.92,196.47 165.87,500.13 -29.21,680.55 -692.08,640.08 -2350.85,2005.97 -3903.68,2005.97 -1560.43,0 -3227.85,-1379.3 -3913.78,-2015.32z"/>
  <path class="fil2" d="M6431.47 4627.95c0,1106.14 -896.71,2002.83 -2002.85,2002.83 -1106.14,0 -2002.85,-896.7 -2002.85,-2002.83 0,-1106.14 896.71,-2002.85 2002.85,-2002.85 1106.14,0 2002.85,896.71 2002.85,2002.85z"/>
  <path class="fil3" d="M4950.28 4496.47c0,567.86 -460.33,1028.2 -1028.2,1028.2 -567.86,0 -1028.19,-460.33 -1028.19,-1028.2 0,-567.86 460.33,-1028.19 1028.19,-1028.19 567.86,0 1028.2,460.33 1028.2,1028.19z"/>
  <path class="fil4" d="M5225.43 4129.08c0,173.12 -140.36,313.48 -313.49,313.48 -173.14,0 -313.48,-140.36 -313.48,-313.48 0,-173.14 140.35,-313.49 313.48,-313.49 173.13,0 313.49,140.35 313.49,313.49z"/>
 </g>
</svg>
