<?xml version="1.0" encoding="UTF-8"?>
<!DOCTYPE svg PUBLIC "-//W3C//DTD SVG 1.1//EN" "http://www.w3.org/Graphics/SVG/1.1/DTD/svg11.dtd">
<!-- Creator: CorelDRAW 2021 (64-Bit) -->
<svg xmlns="http://www.w3.org/2000/svg" xml:space="preserve" width="2.79689in" height="1.96064in" version="1.1" style="shape-rendering:geometricPrecision; text-rendering:geometricPrecision; image-rendering:optimizeQuality; fill-rule:evenodd; clip-rule:evenodd"
viewBox="0 0 1310.88 918.94"
 xmlns:xlink="http://www.w3.org/1999/xlink"
 xmlns:xodm="http://www.corel.com/coreldraw/odm/2003">
 <defs>
  <style type="text/css">
   <![CDATA[
    .str1 {stroke:#030059;stroke-width:19.53;stroke-miterlimit:10}
    .str0 {stroke:#5D80DF;stroke-width:13.02;stroke-miterlimit:10}
    .fil2 {fill:none;fill-rule:nonzero}
    .fil0 {fill:#030059;fill-rule:nonzero}
    .fil3 {fill:#3648A3;fill-rule:nonzero}
    .fil1 {fill:#5D80DF;fill-rule:nonzero}
    .fil5 {fill:#FF1700;fill-rule:nonzero}
    .fil4 {fill:white;fill-rule:nonzero;fill-opacity:0.211765}
    .fil6 {fill:white;fill-rule:nonzero;fill-opacity:0.329412}
   ]]>
  </style>
 </defs>
 <g id="OBJECTS">
  <metadata id="CorelCorpID_0Corel-Layer"/>
  <g id="_2359230403392">
   <g>
    <path class="fil0" d="M602.05 145.84c237.25,0 439.99,81.24 521.4,195.91 1.44,-9.02 2.22,-18.14 2.22,-27.36 0,-170.04 -250.53,-307.88 -559.58,-307.88 -309.05,0 -559.58,137.84 -559.58,307.88 0,39.5 13.54,77.27 38.18,111.98 25.17,-157.22 265.07,-280.53 557.36,-280.53z"/>
    <path class="fil1" d="M1123.45 341.75c-25.17,157.22 -265.07,280.52 -557.36,280.52 -113.37,0 -228.87,-17.68 -334.14,-60.9 -43,-17.65 -84.59,-39.76 -121.47,-68.21 -16.29,-12.56 -31.74,-26.52 -45.97,-41.34 -13.24,-13.79 -37.97,-46.58 -34.77,-67.96 -6.95,46.46 7.75,97 26.84,138.86 86.86,190.44 360.1,238.88 545.47,238.88 309.05,0 559.58,-137.84 559.58,-307.88 0,-39.51 -13.54,-77.27 -38.18,-111.98z"/>
   </g>
   <path class="fil2 str0" d="M1125.67 314.39c0,-170.04 -250.53,-307.88 -559.58,-307.88 -309.05,0 -559.58,137.84 -559.58,307.88 0,39.5 13.54,77.27 38.18,111.98"/>
   <path class="fil2 str0" d="M1123.45 341.75c-25.17,157.22 -265.07,280.52 -557.36,280.52 -237.25,0 -439.99,-81.24 -521.4,-195.91"/>
   <path class="fil3" d="M1112.57 598.9c-257.3,133.63 -566.04,185.75 -915.03,177.99 -22.53,-0.5 -40.61,-18.82 -40.61,-41.36l0.11 -360.04c0,-22.31 17.71,-40.69 40.01,-41.29 307.94,-8.38 602.43,-62.82 881,-171.7 27.16,-10.62 56.48,9.24 56.48,38.39l0 361.48c0,15.3 -8.38,29.47 -21.96,36.52z"/>
   <path class="fil3" d="M1167.7 642.05c-257.31,133.63 -799.07,262.79 -799.07,262.79l-193.57 -135.14c-11.53,-8.19 -11.62,-24.61 -9.89,-38.65l46.99 -312.4c0,-22.4 17.85,-40.69 40.25,-41.3 305.93,-8.37 586.3,-98.14 863.1,-206.09 3.6,-1.4 7.71,-0.46 10.25,2.45 25.84,29.57 172.79,160.98 175.35,184.59l-111.45 247.24c0,15.3 -8.39,29.47 -21.97,36.52z"/>
   <path class="fil4" d="M394.7 428.58c-36.48,-35.32 -78.61,-64.99 -117.59,-97.79 -23.95,1.29 -47.96,2.4 -72.07,3.12 48.64,43.53 97.36,86.96 146.27,130.19 5.54,-9.49 26.16,-15.29 58.9,-20.32 -5.16,-5.07 -10.31,-10.17 -15.51,-15.2z"/>
   <path class="fil4" d="M1070.36 323.95c41.19,-10.46 83.25,-22.04 127.84,-35.72 -39.6,-39.64 -85.76,-85.47 -127.35,-123.01 -38,14.71 -76.33,28.31 -114.92,41.02 39.08,38.45 78.84,76.28 114.43,117.71z"/>
   <path class="fil4" d="M835.51 323.77c12.53,11.53 26.2,22.8 39.98,34.28 2.83,2.05 5.68,4.06 8.54,6.06 -37.08,-35.39 -74.98,-69.96 -112.23,-105.17 -0.97,0.24 -1.94,0.49 -2.91,0.73 21.84,21.87 44.03,43.3 66.63,64.1z"/>
   <path class="fil4" d="M564.29 300.58c-71.91,11.41 -144.67,19.93 -218.25,25.65 30.63,24.17 61.76,47.81 89.07,74.62 11.95,11.73 23.8,23.52 35.66,35.3 53.12,-5.95 121.39,-12.93 200.02,-25.81 -37.6,-34.73 -73.39,-71.12 -106.5,-109.76z"/>
   <path class="fil4" d="M335.21 482.89c-53.31,-47.12 -106.41,-94.5 -159.42,-141.96 -6.82,4.48 -12.27,10.88 -15.48,18.48 10.97,8.1 21.85,16.32 32.56,24.77 45.51,35.93 88.96,74.24 131.99,113.06 3.04,-5.12 6.48,-9.92 10.35,-14.35z"/>
   <path class="fil4" d="M1080.89 380.57c-111.13,23.76 -222.22,47.99 -334.41,66.28 -79.78,13.01 -158.12,18.28 -238.24,25.7 -30.95,2.86 -83,7.04 -116.82,26.86 38.03,33.44 76.15,66.78 114.51,99.85 12.07,10.41 -3.82,29.37 -15.9,18.95 -39.55,-34.11 -78.86,-68.5 -118.08,-103 -4.07,4.73 -7.37,10 -9.64,15.92 48.46,44.02 96.93,88.03 147.7,129.37 12.37,10.08 -3.55,29.01 -15.9,18.95 -20.28,-16.51 -40.11,-33.56 -59.8,-50.77 2.3,5.19 4.53,10.41 6.62,15.66 16.75,42.05 27.82,86.61 34.59,131.65 1.61,-0.23 3.21,-0.52 4.81,-0.75 21.3,-4.47 43.04,-7.06 63.62,-9.42 58.82,-6.72 116.32,-9.52 174.08,-22.67 9.41,-2.34 18.79,-4.66 28.16,-6.95 107.14,-26.98 212.38,-60.66 317.73,-93.92 33.58,-13.63 66.87,-27.97 99.94,-42.83 9.97,-21.39 20.02,-42.74 30.3,-63.97 13.18,-31.96 27.01,-63.64 41.22,-95.17 8.02,-30.66 15.31,-61.57 22.52,-92.5 -4.17,-4.13 -8.3,-8.31 -12.46,-12.45 -52.91,21 -109.88,33.52 -164.57,45.21z"/>
   <path class="fil5" d="M279.23 828.08l-4.07 -342.1c-0.38,-32.28 22.27,-60.25 53.93,-66.58l843.64 -168.69c11.63,-2.33 23.02,-1.41 33.43,1.91 -14.84,-19.96 -40.33,-31.21 -66.99,-25.88l-843.64 168.69c-31.65,6.33 -54.31,34.3 -53.93,66.58l4.07 342.1c0.27,23.16 17.46,41.5 38.87,44.8 -3.27,-6.2 -5.22,-13.25 -5.31,-20.83z"/>
   <path class="fil1" d="M1250.64 744.17l-836.98 167.36c-43.47,8.69 -84.03,-24.56 -84.03,-68.89l0 -298.21c0,-36.01 27.23,-66.13 63.05,-69.84 279.86,-28.96 554.47,-83.94 824.35,-162.3 45.05,-13.08 90.1,20.45 90.1,67.37l0 295.62c0,33.49 -23.64,62.33 -56.48,68.89z"/>
   <path class="fil6" d="M1114.42 340.88c-139.79,176.53 -284.77,348.96 -434.26,517.35l343 -68.58c96.7,-113.84 191.33,-229.43 283.97,-346.63l0 -63.36c0,-46.92 -45.05,-80.45 -90.1,-67.37 -34.13,9.91 -68.33,19.44 -102.61,28.6z"/>
   <path class="fil6" d="M827.46 408.19c-154.51,165.79 -312.89,327.93 -475,486.28 15.81,14.44 38.09,21.67 61.2,17.05l50.64 -10.13c172.72,-170.46 341.15,-345.24 505.1,-524.17 -47.17,11.05 -94.48,21.37 -141.94,30.96z"/>
   <path class="fil5" d="M979.09 458.78l-325.12 65.18c-14.57,2.92 -28.04,-8.52 -27.52,-23.37l0.12 -3.43c0.38,-10.9 8.41,-20.04 19.16,-21.88 115.34,-19.77 223.13,-38.68 323.64,-61.48 14.44,-3.28 28.21,7.6 28.21,22.42 0,10.96 -7.74,20.41 -18.49,22.56z"/>
   <line class="fil2 str1" x1="1245.33" y1="742.53" x2="418.63" y2= "907.83" />
   <path class="fil2 str1" d="M418.63 907.83c-42.94,8.59 -83,-24.26 -83,-68.05"/>
   <line class="fil2 str1" x1="335.63" y1="839.78" x2="335.63" y2= "545.24" />
   <path class="fil2 str1" d="M335.63 545.24c0,-35.56 26.9,-65.32 62.27,-68.98 276.42,-28.6 547.65,-82.91 814.22,-160.3 44.5,-12.92 88.99,20.21 88.99,66.54"/>
   <line class="fil2 str1" x1="1301.12" y1="382.5" x2="1301.12" y2= "674.48" />
   <path class="fil2 str1" d="M1301.12 674.48c0,33.08 -23.35,61.56 -55.79,68.05"/>
   <path class="fil0" d="M269.12 770.65c-5.66,3.18 -12.68,2.64 -17.78,-1.38l-116.84 -92.1 -17.95 -195.23c-0.71,-7.74 4.16,-14.89 11.62,-17.07 5.07,-1.48 10.53,-0.81 15.09,1.85l126.12 73.49c5.93,3.45 9.57,9.79 9.57,16.65l0 196.99c0,6.96 -3.75,13.38 -9.82,16.79z"/>
   <path class="fil3" d="M248.41 769l-122.45 -74.56c-6.61,-4.03 -10.65,-11.21 -10.65,-18.95l0 -192.96c0,-6.1 6.67,-9.85 11.88,-6.67l122.57 74.63c6.21,3.78 10,10.53 10,17.79l0 194.34c0,5.83 -6.38,9.41 -11.35,6.38z"/>
   <g>
    <path class="fil5" d="M192.55 682.99l-45.18 -27.51c-4.33,-2.63 -6.96,-7.33 -6.96,-12.39l0 -78.34c0,-10.79 11.8,-17.42 21.02,-11.81l45.51 27.71c4.12,2.51 6.64,6.99 6.64,11.81l0 78.72c0,10.79 -11.81,17.42 -21.02,11.81z"/>
    <path class="fil5" d="M184.89 686.82l-45.18 -27.51c-4.33,-2.64 -6.97,-7.33 -6.97,-12.4l0 -78.34c0,-10.79 11.81,-17.42 21.02,-11.81l45.51 27.71c4.12,2.51 6.64,6.99 6.64,11.81l0 78.72c0,10.79 -11.81,17.42 -21.02,11.81z"/>
   </g>
  </g>
 </g>
</svg>
